<svg xmlns="http://www.w3.org/2000/svg" xmlns:xlink="http://www.w3.org/1999/xlink" xmlns:lucid="lucid" width="902.5" height="1820"><g transform="translate(-260 -140)" lucid:page-tab-id="0_0"><path d="M0 0h1870.87v2581.67H0z" fill="#fff"/><path d="M788 160c17.67 0 32 17.9 32 40s-14.33 40-32 40h-96c-17.67 0-32-17.9-32-40s14.33-40 32-40z" stroke="#3a414a" fill="#fff"/><use xlink:href="#a" transform="matrix(1,0,0,1,665,165) translate(68.82716049382717 39.65277777777778)"/><path d="M680.45 305.8A7.8 7.8 0 0 1 688 300h136a4.6 4.6 0 0 1 4.45 5.8l-28.9 108.4A7.8 7.8 0 0 1 792 420H656a4.6 4.6 0 0 1-4.45-5.8z" stroke="#3a414a" fill="#fff"/><use xlink:href="#b" transform="matrix(1,0,0,1,655,305) translate(79.33216049382716 59.02777777777778)"/><path d="M735.2 483.6a8 8 0 0 1 9.6 0l70.4 52.8a4.5 4.5 0 0 1 0 7.2l-70.4 52.8a8 8 0 0 1-9.6 0l-70.4-52.8a4.5 4.5 0 0 1 0-7.2z" stroke="#3a414a" fill="#fff"/><use xlink:href="#c" transform="matrix(1,0,0,1,665,485) translate(68.83216049382716 59.02777777777778)"/><path d="M280 467.33a6 6 0 0 1 6-6h188a6 6 0 0 1 6 6v145.34a6 6 0 0 1-6 6H286a6 6 0 0 1-6-6z" stroke="#3a414a" fill="#fff"/><use xlink:href="#d" transform="matrix(1,0,0,1,292,473.3333333333333) translate(81.82716049382717 72.21527777777777)"/><path d="M740 241v42.12" stroke="#3a414a" fill="none"/><path d="M740.5 241h-1v-.5h1z" stroke="#3a414a" stroke-width=".05" fill="#3a414a"/><path d="M740 297.88l-4.63-14.26h9.26z" stroke="#3a414a" fill="#3a414a"/><path d="M740 421v44.12" stroke="#3a414a" fill="none"/><path d="M740.5 421h-1v-.5h1z" stroke="#3a414a" stroke-width=".05" fill="#3a414a"/><path d="M740 479.88l-4.63-14.26h9.26z" stroke="#3a414a" fill="#3a414a"/><path d="M740.5 723.12h-1v-40.8h1zm0-67.45h-1V599h1z" stroke="#3a414a" stroke-width=".05" fill="#3a414a"/><path d="M740 598.5l.5-.03v.54h-1v-.53z" fill="#3a414a"/><path d="M740 598.48l.52-.04v.6h-1.04v-.6zm-.48.5h.96v-.5l-.48.05-.48-.03z" stroke="#3a414a" stroke-width=".05" fill="#3a414a"/><path d="M740 737.88l-4.63-14.26h9.26z" fill="#3a414a"/><path d="M740 739.5l-5.32-16.38h10.64zm-3.95-15.38l3.95 12.14 3.95-12.14z" stroke="#3a414a" stroke-width=".05" fill="#3a414a"/><use xlink:href="#e" transform="matrix(1,0,0,1,721.8827160493827,655.6671998959331) translate(0 17.77777777777778)"/><path d="M557.33 540.5h-60.45v-1h60.45zm104.67 0h-76.33v-1H662z" stroke="#3a414a" stroke-width=".05" fill="#3a414a"/><path d="M662.5 540l.04.5H662v-1h.54z" fill="#3a414a"/><path d="M662.52 540l.05.52h-.6v-1.04h.6zm-.5-.48v.96h.5l-.05-.48.05-.48z" stroke="#3a414a" stroke-width=".05" fill="#3a414a"/><path d="M496.38 544.63L482.12 540l14.26-4.63z" fill="#3a414a"/><path d="M496.88 545.32L480.5 540l16.38-5.32zM483.74 540l12.14 3.95v-7.9z" stroke="#3a414a" stroke-width=".05" fill="#3a414a"/><use xlink:href="#f" transform="matrix(1,0,0,1,557.3322508438301,526.6666666666666) translate(0 17.77777777777778)"/><path d="M735.2 743.6a8 8 0 0 1 9.6 0l70.4 52.8a4.5 4.5 0 0 1 0 7.2l-70.4 52.8a8 8 0 0 1-9.6 0l-70.4-52.8a4.5 4.5 0 0 1 0-7.2z" stroke="#3a414a" fill="#fff"/><use xlink:href="#g" transform="matrix(1,0,0,1,665,745) translate(68.83216049382716 59.02777777777778)"/><path d="M735.2 943.6a8 8 0 0 1 9.6 0l70.4 52.8a4.5 4.5 0 0 1 0 7.2l-70.4 52.8a8 8 0 0 1-9.6 0l-70.4-52.8a4.5 4.5 0 0 1 0-7.2z" stroke="#3a414a" fill="#fff"/><use xlink:href="#h" transform="matrix(1,0,0,1,665,945) translate(68.83216049382716 59.02777777777778)"/><path d="M735.2 1123.6a8 8 0 0 1 9.6 0l70.4 52.8a4.5 4.5 0 0 1 0 7.2l-70.4 52.8a8 8 0 0 1-9.6 0l-70.4-52.8a4.5 4.5 0 0 1 0-7.2z" stroke="#3a414a" fill="#fff"/><use xlink:href="#i" transform="matrix(1,0,0,1,665,1125) translate(68.83216049382716 59.02777777777778)"/><path d="M735.2 1303.6a8 8 0 0 1 9.6 0l70.4 52.8a4.5 4.5 0 0 1 0 7.2l-70.4 52.8a8 8 0 0 1-9.6 0l-70.4-52.8a4.5 4.5 0 0 1 0-7.2z" stroke="#3a414a" fill="#fff"/><use xlink:href="#j" transform="matrix(1,0,0,1,665,1305) translate(63.492654320987654 59.02777777777778)"/><path d="M380 460.33V366a6 6 0 0 1 6-6h263.1" stroke="#3a414a" fill="none"/><path d="M380.5 460.83h-1v-.5h1z" stroke="#3a414a" stroke-width=".05" fill="#3a414a"/><path d="M663.87 360l-14.27 4.63v-9.26z" stroke="#3a414a" fill="#3a414a"/><path d="M960 746a6 6 0 0 1 6-6h148a6 6 0 0 1 6 6v108a6 6 0 0 1-6 6H966a6 6 0 0 1-6-6z" stroke="#3a414a" fill="#fff"/><use xlink:href="#k" transform="matrix(1,0,0,1,972,752) translate(61.82716049382716 53.77777777777778)"/><path d="M960 946a6 6 0 0 1 6-6h148a6 6 0 0 1 6 6v108a6 6 0 0 1-6 6H966a6 6 0 0 1-6-6z" stroke="#3a414a" fill="#fff"/><use xlink:href="#l" transform="matrix(1,0,0,1,972,952) translate(61.82716049382716 53.77777777777778)"/><path d="M960 1126a6 6 0 0 1 6-6h148a6 6 0 0 1 6 6v108a6 6 0 0 1-6 6H966a6 6 0 0 1-6-6z" stroke="#3a414a" fill="#fff"/><use xlink:href="#m" transform="matrix(1,0,0,1,972,1132) translate(55.65432098765432 53.77777777777778)"/><path d="M960 1306a6 6 0 0 1 6-6h148a6 6 0 0 1 6 6v108a6 6 0 0 1-6 6H966a6 6 0 0 1-6-6z" stroke="#3a414a" fill="#fff"/><use xlink:href="#n" transform="matrix(1,0,0,1,972,1312) translate(55.65432098765432 53.77777777777778)"/><path d="M870.38 800.5H818v-1h52.38zm72.74 0h-36.5v-1h36.5z" stroke="#3a414a" stroke-width=".05" fill="#3a414a"/><path d="M818 800.5h-.54l.04-.5-.04-.5h.55z" fill="#3a414a"/><path d="M818.04 800.52h-.6l.04-.52-.05-.52h.6zm-.56-1l.05.48-.05.48h.5v-.96z" stroke="#3a414a" stroke-width=".05" fill="#3a414a"/><path d="M957.88 800l-14.26 4.63v-9.26z" fill="#3a414a"/><path d="M959.5 800l-16.38 5.32v-10.64zm-15.38 3.95l12.14-3.95-12.14-3.95z" stroke="#3a414a" stroke-width=".05" fill="#3a414a"/><use xlink:href="#o" transform="matrix(1,0,0,1,870.3837985388859,786.6666666666666) translate(0 17.77777777777778)"/><path d="M740.5 925.1h-1v-11.77h1zm0-38.43h-1V859h1z" stroke="#3a414a" stroke-width=".05" fill="#3a414a"/><path d="M740 858.5l.5-.03v.54h-1v-.53z" fill="#3a414a"/><path d="M740 858.48l.52-.04v.6h-1.04v-.6zm-.48.5h.96v-.5l-.48.05-.48-.03z" stroke="#3a414a" stroke-width=".05" fill="#3a414a"/><path d="M740 939.88l-4.63-14.26h9.26z" fill="#3a414a"/><path d="M740 941.5l-5.32-16.38h10.64zm-3.95-15.38l3.95 12.14 3.95-12.14z" stroke="#3a414a" stroke-width=".05" fill="#3a414a"/><use xlink:href="#p" transform="matrix(1,0,0,1,725.8333333333334,886.6666666666666) translate(0 17.77777777777778)"/><path d="M870.38 1000.5H818v-1h52.38zm72.74 0h-36.5v-1h36.5z" stroke="#3a414a" stroke-width=".05" fill="#3a414a"/><path d="M818 1000.5h-.54l.04-.5-.04-.5h.55z" fill="#3a414a"/><path d="M818.04 1000.52h-.6l.04-.52-.05-.52h.6zm-.56-1l.05.48-.05.48h.5v-.96z" stroke="#3a414a" stroke-width=".05" fill="#3a414a"/><path d="M957.88 1000l-14.26 4.63v-9.26z" fill="#3a414a"/><path d="M959.5 1000l-16.38 5.32v-10.64zm-15.38 3.95l12.14-3.95-12.14-3.95z" stroke="#3a414a" stroke-width=".05" fill="#3a414a"/><use xlink:href="#o" transform="matrix(1,0,0,1,870.3837985388859,986.6666666666666) translate(0 17.77777777777778)"/><path d="M740.5 1105.12h-1v-1.8h1zm0-28.45h-1V1059h1z" stroke="#3a414a" stroke-width=".05" fill="#3a414a"/><path d="M740 1058.5l.5-.03v.54h-1v-.53z" fill="#3a414a"/><path d="M740 1058.48l.52-.04v.6h-1.04v-.6zm-.48.5h.96v-.5l-.48.05-.48-.04z" stroke="#3a414a" stroke-width=".05" fill="#3a414a"/><path d="M740 1119.88l-4.63-14.27 9.26.02z" fill="#3a414a"/><path d="M740 1121.5l-5.32-16.38h10.64zm-3.95-15.38l3.95 12.14 3.95-12.14z" stroke="#3a414a" stroke-width=".05" fill="#3a414a"/><use xlink:href="#p" transform="matrix(1,0,0,1,725.8333333333334,1076.6666666666667) translate(0 17.77777777777778)"/><path d="M870.38 1180.5H818v-1h52.38zm72.74 0h-36.5v-1h36.5z" stroke="#3a414a" stroke-width=".05" fill="#3a414a"/><path d="M818 1180.5h-.54l.04-.5-.04-.5h.55z" fill="#3a414a"/><path d="M818.04 1180.53h-.6l.04-.53-.05-.53h.6zm-.56-1l.05.47-.05.47h.5v-.94z" stroke="#3a414a" stroke-width=".05" fill="#3a414a"/><path d="M957.88 1180l-14.26 4.63v-9.27z" fill="#3a414a"/><path d="M959.5 1180l-16.38 5.32v-10.64zm-15.38 3.95l12.14-3.95-12.14-3.95z" stroke="#3a414a" stroke-width=".05" fill="#3a414a"/><use xlink:href="#o" transform="matrix(1,0,0,1,870.3837985388859,1166.6666666666667) translate(0 17.77777777777778)"/><path d="M740.5 1285.12h-1v-1.8h1zm0-28.45h-1V1239h1z" stroke="#3a414a" stroke-width=".05" fill="#3a414a"/><path d="M740 1238.5l.5-.03v.54h-1v-.53z" fill="#3a414a"/><path d="M740 1238.48l.52-.04v.6h-1.04v-.6zm-.48.5h.96v-.5l-.48.05-.48-.04z" stroke="#3a414a" stroke-width=".05" fill="#3a414a"/><path d="M740 1299.88l-4.63-14.27 9.26.02z" fill="#3a414a"/><path d="M740 1301.5l-5.32-16.38h10.64zm-3.95-15.38l3.95 12.14 3.95-12.14z" stroke="#3a414a" stroke-width=".05" fill="#3a414a"/><use xlink:href="#p" transform="matrix(1,0,0,1,725.8333333333334,1256.6666666666667) translate(0 17.77777777777778)"/><path d="M870.38 1360.5H818v-1h52.38zm72.74 0h-36.5v-1h36.5z" stroke="#3a414a" stroke-width=".05" fill="#3a414a"/><path d="M818 1360.5h-.54l.04-.5-.04-.5h.55z" fill="#3a414a"/><path d="M818.04 1360.53h-.6l.04-.53-.05-.53h.6zm-.56-1l.05.47-.05.47h.5v-.94z" stroke="#3a414a" stroke-width=".05" fill="#3a414a"/><path d="M957.88 1360l-14.26 4.63v-9.27z" fill="#3a414a"/><path d="M959.5 1360l-16.38 5.32v-10.64zm-15.38 3.95l12.14-3.95-12.14-3.95z" stroke="#3a414a" stroke-width=".05" fill="#3a414a"/><use xlink:href="#o" transform="matrix(1,0,0,1,870.3837985388859,1346.6666666666667) translate(0 17.77777777777778)"/><path d="M735.2 1483.6a8 8 0 0 1 9.6 0l70.4 52.8a4.5 4.5 0 0 1 0 7.2l-70.4 52.8a8 8 0 0 1-9.6 0l-70.4-52.8a4.5 4.5 0 0 1 0-7.2z" stroke="#3a414a" fill="#fff"/><use xlink:href="#q" transform="matrix(1,0,0,1,665,1485) translate(62.65932098765432 59.02777777777778)"/><path d="M740.5 1465.12h-1v-1.8h1zm0-28.45h-1V1419h1z" stroke="#3a414a" stroke-width=".05" fill="#3a414a"/><path d="M740 1418.5l.5-.03v.54h-1v-.53z" fill="#3a414a"/><path d="M740 1418.48l.52-.04v.6h-1.04v-.6zm-.48.5h.96v-.5l-.48.05-.48-.04z" stroke="#3a414a" stroke-width=".05" fill="#3a414a"/><path d="M740 1479.88l-4.63-14.27 9.26.02z" fill="#3a414a"/><path d="M740 1481.5l-5.32-16.38h10.64zm-3.95-15.38l3.95 12.14 3.95-12.14z" stroke="#3a414a" stroke-width=".05" fill="#3a414a"/><use xlink:href="#p" transform="matrix(1,0,0,1,725.8333333333334,1436.6666666666667) translate(0 17.77777777777778)"/><path d="M660 1666a6 6 0 0 1 6-6h148a6 6 0 0 1 6 6v108a6 6 0 0 1-6 6H666a6 6 0 0 1-6-6z" stroke="#3a414a" fill="#fff"/><use xlink:href="#r" transform="matrix(1,0,0,1,672,1672) translate(55.65432098765432 53.77777777777778)"/><path d="M740.5 1643.12h-1v-.8h1zm0-27.45h-1V1599h1z" stroke="#3a414a" stroke-width=".05" fill="#3a414a"/><path d="M740 1598.5l.5-.03v.54h-1v-.53z" fill="#3a414a"/><path d="M740 1598.48l.52-.04v.6h-1.04v-.6zm-.48.5h.96v-.5l-.48.05-.48-.04z" stroke="#3a414a" stroke-width=".05" fill="#3a414a"/><path d="M740 1657.88l-4.63-14.26h9.26z" fill="#3a414a"/><path d="M740 1659.5l-5.32-16.38h10.64zm-3.95-15.38l3.95 12.14 3.95-12.14z" stroke="#3a414a" stroke-width=".05" fill="#3a414a"/><use xlink:href="#o" transform="matrix(1,0,0,1,721.8827160493827,1615.6671998959334) translate(0 17.77777777777778)"/><path d="M788 1860c17.67 0 32 17.9 32 40s-14.33 40-32 40h-96c-17.67 0-32-17.9-32-40s14.33-40 32-40z" stroke="#3a414a" fill="#fff"/><use xlink:href="#s" transform="matrix(1,0,0,1,665,1865) translate(62.65432098765432 39.65277777777778)"/><path d="M740 1781v62.12" stroke="#3a414a" fill="none"/><path d="M740.5 1781h-1v-.5h1z" stroke="#3a414a" stroke-width=".05" fill="#3a414a"/><path d="M740 1857.88l-4.63-14.26h9.26z" stroke="#3a414a" fill="#3a414a"/><path d="M1155.52 799.58l1 .24.93.4.87.52.78.66.66.78.53.87.38.94.24.98.08 1v1088.04l-.08 1-.24 1-.4.93-.52.87-.66.78-.78.66-.87.53-.94.38-.98.24-1 .08H836.88v-1h317.6l.88-.07.84-.2.8-.33.73-.45.66-.56.55-.67.45-.73.33-.8.2-.84.07-.88V806.02l-.07-.88-.2-.84-.33-.8-.45-.73-.56-.66-.67-.55-.73-.45-.8-.33-.84-.2-.88-.07H1121v-1h33.52z" stroke="#3a414a" stroke-width=".05" fill="#3a414a"/><path d="M1121 800.5h-.5v-1h.5z" fill="#3a414a"/><path d="M1121.04 800.52h-.57v-1.04h.57zm-.5-1v.96h.45v-.96z" stroke="#3a414a" stroke-width=".05" fill="#3a414a"/><path d="M836.38 1904.63l-14.26-4.63 14.26-4.63z" fill="#3a414a"/><path d="M836.88 1905.32L820.5 1900l16.38-5.32zm-13.14-5.32l12.14 3.95v-7.9zM1155.52 999.58l1 .24.93.4.87.52.78.66.66.78.53.87.38.94.24.98.08 1v888.04l-.08 1-.24 1-.4.93-.52.87-.66.78-.78.66-.87.53-.94.38-.98.24-1 .08H836.88v-1h317.6l.88-.07.84-.2.8-.33.73-.45.66-.56.55-.67.45-.73.33-.8.2-.84.07-.88v-887.96l-.07-.88-.2-.84-.33-.8-.45-.73-.56-.66-.67-.55-.73-.45-.8-.33-.84-.2-.88-.07H1121v-1h33.52z" stroke="#3a414a" stroke-width=".05" fill="#3a414a"/><path d="M1121 1000.5h-.5v-1h.5z" fill="#3a414a"/><path d="M1121.04 1000.52h-.57v-1.04h.57zm-.5-1v.96h.45v-.96z" stroke="#3a414a" stroke-width=".05" fill="#3a414a"/><path d="M836.38 1904.63l-14.26-4.63 14.26-4.63z" fill="#3a414a"/><path d="M836.88 1905.32L820.5 1900l16.38-5.32zm-13.14-5.32l12.14 3.95v-7.9zM1155.52 1179.58l1 .24.93.4.87.52.78.66.66.78.53.87.38.94.24.98.08 1v708.04l-.08 1-.24 1-.4.93-.52.87-.66.78-.78.66-.87.53-.94.38-.98.24-1 .08H836.88v-1h317.6l.88-.07.84-.2.8-.33.73-.45.66-.56.55-.67.45-.73.33-.8.2-.84.07-.88v-707.96l-.07-.88-.2-.84-.33-.8-.45-.73-.56-.66-.67-.55-.73-.45-.8-.33-.84-.2-.88-.07H1121v-1h33.52z" stroke="#3a414a" stroke-width=".05" fill="#3a414a"/><path d="M1121 1180.5h-.5v-1h.5z" fill="#3a414a"/><path d="M1121.04 1180.53h-.57v-1.06h.57zm-.5-1v.94h.45v-.94z" stroke="#3a414a" stroke-width=".05" fill="#3a414a"/><path d="M836.38 1904.63l-14.26-4.63 14.26-4.63z" fill="#3a414a"/><path d="M836.88 1905.32L820.5 1900l16.38-5.32zm-13.14-5.32l12.14 3.95v-7.9zM1155.52 1359.58l1 .24.93.4.87.52.78.66.66.78.53.87.38.94.24.98.08 1v528.04l-.08 1-.24 1-.4.93-.52.87-.66.78-.78.66-.87.53-.94.38-.98.24-1 .08H836.88v-1h317.6l.88-.07.84-.2.8-.33.73-.45.66-.56.55-.67.45-.73.33-.8.2-.84.07-.88v-527.96l-.07-.88-.2-.84-.33-.8-.45-.73-.56-.66-.67-.55-.73-.45-.8-.33-.84-.2-.88-.07H1121v-1h33.52z" stroke="#3a414a" stroke-width=".05" fill="#3a414a"/><path d="M1121 1360.5h-.5v-1h.5z" fill="#3a414a"/><path d="M1121.04 1360.53h-.57v-1.06h.57zm-.5-1v.94h.45v-.94z" stroke="#3a414a" stroke-width=".05" fill="#3a414a"/><path d="M836.38 1904.63l-14.26-4.63 14.26-4.63z" fill="#3a414a"/><path d="M836.88 1905.32L820.5 1900l16.38-5.32zm-13.14-5.32l12.14 3.95v-7.9z" stroke="#3a414a" stroke-width=".05" fill="#3a414a"/><defs><path fill="#3a414a" d="M27 0v-27h64v-190l-56 39v-29l58-41h29v221h61V0H27" id="t"/><use transform="matrix(0.06172839506172839,0,0,0.06172839506172839,0,0)" xlink:href="#t" id="a"/><path fill="#3a414a" d="M101-251c82-7 93 87 43 132L82-64C71-53 59-42 53-27h129V0H18c2-99 128-94 128-182 0-28-16-43-45-43s-46 15-49 41l-32-3c6-41 34-60 81-64" id="u"/><use transform="matrix(0.06172839506172839,0,0,0.06172839506172839,0,0)" xlink:href="#u" id="b"/><path fill="#3a414a" d="M126-127c33 6 58 20 58 59 0 88-139 92-164 29-3-8-5-16-6-25l32-3c6 27 21 44 54 44 32 0 52-15 52-46 0-38-36-46-79-43v-28c39 1 72-4 72-42 0-27-17-43-46-43-28 0-47 15-49 41l-32-3c6-42 35-63 81-64 48-1 79 21 79 65 0 36-21 52-52 59" id="v"/><use transform="matrix(0.06172839506172839,0,0,0.06172839506172839,0,0)" xlink:href="#v" id="c"/><path fill="#3a414a" d="M155-56V0h-30v-56H8v-25l114-167h33v167h35v25h-35zm-30-156c-27 46-58 90-88 131h88v-131" id="w"/><use transform="matrix(0.06172839506172839,0,0,0.06172839506172839,0,0)" xlink:href="#w" id="d"/><path fill="#3a414a" d="M137-103V0h-34v-103L8-248h37l75 118 75-118h37" id="x"/><path fill="#3a414a" d="M100-194c63 0 86 42 84 106H49c0 40 14 67 53 68 26 1 43-12 49-29l28 8c-11 28-37 45-77 45C44 4 14-33 15-96c1-61 26-98 85-98zm52 81c6-60-76-77-97-28-3 7-6 17-6 28h103" id="y"/><path fill="#3a414a" d="M135-143c-3-34-86-38-87 0 15 53 115 12 119 90S17 21 10-45l28-5c4 36 97 45 98 0-10-56-113-15-118-90-4-57 82-63 122-42 12 7 21 19 24 35" id="z"/><g id="e"><use transform="matrix(0.06172839506172839,0,0,0.06172839506172839,0,0)" xlink:href="#x"/><use transform="matrix(0.06172839506172839,0,0,0.06172839506172839,12.777777777777777,0)" xlink:href="#y"/><use transform="matrix(0.06172839506172839,0,0,0.06172839506172839,25.123456790123456,0)" xlink:href="#z"/></g><path fill="#3a414a" d="M190 0L58-211 59 0H30v-248h39L202-35l-2-213h31V0h-41" id="A"/><path fill="#3a414a" d="M100-194c62-1 85 37 85 99 1 63-27 99-86 99S16-35 15-95c0-66 28-99 85-99zM99-20c44 1 53-31 53-75 0-43-8-75-51-75s-53 32-53 75 10 74 51 75" id="B"/><g id="f"><use transform="matrix(0.06172839506172839,0,0,0.06172839506172839,0,0)" xlink:href="#A"/><use transform="matrix(0.06172839506172839,0,0,0.06172839506172839,15.987654320987653,0)" xlink:href="#B"/></g><path fill="#3a414a" d="M54-142c48-35 137-8 131 61C196 18 31 33 14-55l32-4c7 23 22 37 52 37 35-1 51-22 54-58 4-55-73-65-99-34H22l8-134h141v27H59" id="C"/><use transform="matrix(0.06172839506172839,0,0,0.06172839506172839,0,0)" xlink:href="#C" id="g"/><path fill="#3a414a" d="M64 0c3-98 48-159 88-221H18v-27h164v26C143-157 98-101 97 0H64" id="D"/><use transform="matrix(0.06172839506172839,0,0,0.06172839506172839,0,0)" xlink:href="#D" id="h"/><path fill="#3a414a" d="M99-251c64 0 84 50 84 122C183-37 130 33 47-8c-14-7-20-23-25-40l30-5c6 39 69 39 84 7 9-19 16-44 16-74-10 22-31 35-62 35-49 0-73-33-73-83 0-54 28-83 82-83zm-1 141c31-1 51-18 51-49 0-36-14-67-51-67-34 0-49 23-49 58 0 34 15 58 49 58" id="E"/><use transform="matrix(0.06172839506172839,0,0,0.06172839506172839,0,0)" xlink:href="#E" id="i"/><g id="j"><use transform="matrix(0.06172839506172839,0,0,0.06172839506172839,0,0)" xlink:href="#t"/><use transform="matrix(0.06172839506172839,0,0,0.06172839506172839,10.679012345679013,0)" xlink:href="#t"/></g><path fill="#3a414a" d="M110-160c48 1 74 30 74 79 0 53-28 85-80 85-65 0-83-55-86-122-5-90 50-162 133-122 14 7 22 21 27 39l-31 6c-5-40-67-38-82-6-9 19-15 44-15 74 11-20 30-34 60-33zm-7 138c34 0 49-23 49-58s-16-56-50-56c-29 0-50 16-49 49 1 36 15 65 50 65" id="F"/><use transform="matrix(0.06172839506172839,0,0,0.06172839506172839,0,0)" xlink:href="#F" id="k"/><path fill="#3a414a" d="M134-131c28 9 52 24 51 62-1 50-34 73-85 73S17-19 16-69c0-36 21-54 49-61-75-25-45-126 34-121 46 3 78 18 79 63 0 33-17 51-44 57zm-34-11c31 1 46-15 46-44 0-28-17-43-47-42-29 0-46 13-45 42 1 28 16 44 46 44zm1 122c35 0 51-18 51-52 0-30-18-46-53-46-33 0-51 17-51 47 0 34 19 51 53 51" id="G"/><use transform="matrix(0.06172839506172839,0,0,0.06172839506172839,0,0)" xlink:href="#G" id="l"/><path fill="#3a414a" d="M101-251c68 0 85 55 85 127S166 4 100 4C33 4 14-52 14-124c0-73 17-127 87-127zm-1 229c47 0 54-49 54-102s-4-102-53-102c-51 0-55 48-55 102 0 53 5 102 54 102" id="H"/><g id="m"><use transform="matrix(0.06172839506172839,0,0,0.06172839506172839,0,0)" xlink:href="#t"/><use transform="matrix(0.06172839506172839,0,0,0.06172839506172839,12.345679012345679,0)" xlink:href="#H"/></g><g id="n"><use transform="matrix(0.06172839506172839,0,0,0.06172839506172839,0,0)" xlink:href="#t"/><use transform="matrix(0.06172839506172839,0,0,0.06172839506172839,12.345679012345679,0)" xlink:href="#u"/></g><g id="o"><use transform="matrix(0.06172839506172839,0,0,0.06172839506172839,0,0)" xlink:href="#x"/><use transform="matrix(0.06172839506172839,0,0,0.06172839506172839,12.777777777777777,0)" xlink:href="#y"/><use transform="matrix(0.06172839506172839,0,0,0.06172839506172839,25.123456790123456,0)" xlink:href="#z"/></g><g id="p"><use transform="matrix(0.06172839506172839,0,0,0.06172839506172839,0,0)" xlink:href="#A"/><use transform="matrix(0.06172839506172839,0,0,0.06172839506172839,15.987654320987653,0)" xlink:href="#B"/></g><g id="q"><use transform="matrix(0.06172839506172839,0,0,0.06172839506172839,0,0)" xlink:href="#t"/><use transform="matrix(0.06172839506172839,0,0,0.06172839506172839,12.345679012345679,0)" xlink:href="#v"/></g><g id="r"><use transform="matrix(0.06172839506172839,0,0,0.06172839506172839,0,0)" xlink:href="#t"/><use transform="matrix(0.06172839506172839,0,0,0.06172839506172839,12.345679012345679,0)" xlink:href="#w"/></g><g id="s"><use transform="matrix(0.06172839506172839,0,0,0.06172839506172839,0,0)" xlink:href="#t"/><use transform="matrix(0.06172839506172839,0,0,0.06172839506172839,12.345679012345679,0)" xlink:href="#C"/></g></defs></g></svg>