<svg 
  width="800px" 
  height="800px" 
  version="1.1" 
  viewBox="0 -6.5 36 36" 
  xmlns="http://www.w3.org/2000/svg"
  className="icon"
>
  <title>right-arrow</title>
  <desc>Created with Sketch.</desc>
  <g>
    <g transform="translate(-212 -159)">
      <g transform="translate(50 120)"
      >
        <path 
          d="m187.11 39.29 10.542 10.451 0.05919 0.054213c0.18015 0.17864 0.27715 0.4085 0.29101 0.64231v0.12355c-0.013857 0.2338-0.11086 0.46367-0.29101 0.64231l-0.051894 0.043897-10.549 10.462c-0.39032 0.38705-1.0231 0.38705-1.4135 0-0.39032-0.38705-0.39032-1.0146 0-1.4016l9.0081-8.9342-31.703 7.795e-4c-0.55199 0-0.99947-0.44373-0.99947-0.9911s0.44748-0.9911 0.99947-0.9911l31.468-7.794e-4 -8.7732-8.6997c-0.39032-0.38705-0.39032-1.0146 0-1.4016 0.39032-0.38705 1.0231-0.38705 1.4135 0zm10.007 11.092-10.714 10.626 10.601-10.509 1.01e-4 -0.0038327-0.05911-0.053787-0.060405-0.059892h0.23262z"


        ></path>
      </g>
    </g>
  </g>
</svg>
